<?xml version="1.0" encoding="utf-8"?>
<!-- Generator: Adobe Illustrator 26.2.1, SVG Export Plug-In . SVG Version: 6.00 Build 0)  -->
<svg version="1.1" id="Layer_1" xmlns="http://www.w3.org/2000/svg" xmlns:xlink="http://www.w3.org/1999/xlink" x="0px" y="0px"
	 viewBox="0 0 551.5 201" style="enable-background:new 0 0 551.5 201;" xml:space="preserve">
<style type="text/css">
	.st0{fill:#2F2D37;}
	.st1{fill:#F872B7;}
	.st2{fill:#FE7C02;}
	.st3{fill:#FF5B23;}
</style>
<g id="Layer_2_00000084499699663545288140000010135204205061437345_">
</g>
<g id="Warstwa_1">
	<g>
		<path class="st0" d="M290.2,71.3c7.9-0.2,15.5,3.1,20.8,9c5.6,6,8.3,13.4,8.3,22.3s-2.8,16.3-8.3,22.4c-5.3,5.9-12.9,9.2-20.8,9
			c-7.6,0.2-14.8-3.3-19.5-9.3v30.1h-15.2V72.7h15.2v7.8C275.3,74.6,282.6,71.1,290.2,71.3z M275.4,114.4c6.5,6.3,16.9,6.3,23.5,0
			c6.3-6.6,6.3-17,0-23.6c-6.5-6.3-16.9-6.3-23.5,0C269.1,97.5,269.1,107.8,275.4,114.4z"/>
		<path class="st0" d="M345.8,118.6h10.1v14h-25.3V48h15.3v70.6H345.8z"/>
		<path class="st0" d="M407.6,72.7h15.2v59.8h-15.2v-7.3c-4.3,5.7-11.1,8.9-18.2,8.7c-6.7,0-12.2-2.1-16.3-6.3
			c-4.1-4.2-6.2-9.7-6.2-16.6V72.7h15.2v33.8c-0.2,3.4,1.1,6.7,3.4,9.2c2.4,2.3,5.6,3.6,8.9,3.4c3.5,0.1,6.9-1.1,9.5-3.5
			c2.5-2.5,3.8-5.8,3.6-9.3V72.7H407.6z"/>
		<path class="st0" d="M456.5,134c-6.4,0-11.7-1.9-16-5.6c-4.1-3.4-6.5-8.4-6.4-13.7h15.4c0,1.8,0.7,3.6,2.1,4.8
			c1.4,1.3,3.2,2,5.1,2c1.7,0.1,3.4-0.5,4.7-1.6c1.2-0.9,1.9-2.3,1.9-3.8c0-3.3-3.3-5.8-10-7.5c-12.3-2.9-18.4-9.2-18.4-18.8
			c0-5.7,2.1-10.2,6.2-13.5c4.4-3.3,9.8-5.1,15.3-4.9c5.6-0.2,11.1,1.7,15.4,5.3c4,3.2,6.2,8,6.2,13.1h-15.4c0-1.6-0.6-3.1-1.8-4.2
			c-1.2-1.1-2.8-1.7-4.5-1.7c-1.6-0.1-3.1,0.4-4.3,1.4c-1.1,0.8-1.8,2.1-1.8,3.5c0,3.3,3.5,5.8,10.4,7.5c12,3.1,18.1,9.2,18.1,18.4
			c0,6-2.1,10.7-6.4,14.1C468.1,132.3,462.8,134,456.5,134z"/>
		<polygon class="st0" points="541.1,72.7 520.8,92.9 500.5,72.7 490,83.2 510.3,103.4 490,123.7 500.5,134.2 520.8,113.9 
			541.1,134.2 551.5,123.7 531.3,103.4 551.5,83.2 		"/>
		<path class="st0" d="M229.5,117.3h14.4v15.2h-46.8v-15.2h16.2V65.6h-16.2v-14h32.4V117.3z"/>
	</g>
	<g>
		<polygon class="st1" points="45.9,95.8 83.9,95.8 44.4,152.8 6.7,152.8 		"/>
		<polygon class="st0" points="83.9,95.8 44.4,40.2 6.7,40.2 45.9,95.8 		"/>
		<polygon class="st2" points="44.4,40.2 70.3,2 33.7,2 6.7,40.2 		"/>
		<polygon class="st0" points="44.4,152.8 69.9,190.3 33.6,190.3 6.7,152.8 		"/>
		<polygon class="st0" points="112,188.4 90.9,158.7 109.4,131.6 149.8,188.4 		"/>
		<polygon class="st3" points="90.2,32 112.2,0 149.9,0 109.4,58.6 		"/>
	</g>
	<g>
		<path class="st0" d="M208.3,183.9c0,0.6,0,1.1,0,1.5s0,0.8,0,1.2s0,0.7,0.1,1.1c0,0.3,0.1,0.7,0.1,1h-1.4
			c-0.1-0.6-0.1-1.2-0.1-1.8l0,0c-0.4,0.7-1,1.3-1.6,1.6S204,189,203,189c-0.5,0-1-0.1-1.4-0.2c-0.5-0.1-0.9-0.3-1.3-0.6
			c-0.4-0.3-0.7-0.6-0.9-1s-0.4-0.9-0.4-1.5c0-0.9,0.2-1.6,0.7-2.1c0.4-0.5,1-0.9,1.6-1.1c0.6-0.3,1.3-0.4,2.1-0.5
			c0.7-0.1,1.4-0.1,1.9-0.1h1.7v-0.7c0-1-0.3-1.7-0.9-2.1c-0.6-0.4-1.4-0.6-2.3-0.6c-1.3,0-2.5,0.4-3.5,1.3l-0.9-1
			c0.5-0.5,1.2-0.9,2-1.2s1.6-0.4,2.3-0.4c1.4,0,2.5,0.3,3.3,1c0.8,0.6,1.2,1.7,1.2,3.1L208.3,183.9L208.3,183.9z M205.3,182.9
			c-0.6,0-1.2,0-1.8,0.1s-1.1,0.2-1.6,0.4s-0.8,0.5-1.1,0.8s-0.4,0.7-0.4,1.2c0,0.3,0.1,0.6,0.2,0.9c0.2,0.3,0.4,0.5,0.6,0.7
			s0.5,0.3,0.8,0.4c0.3,0.1,0.6,0.1,0.9,0.1c0.8,0,1.4-0.1,1.9-0.3s0.9-0.5,1.2-0.9s0.5-0.8,0.6-1.2c0.1-0.5,0.2-0.9,0.2-1.4v-0.8
			H205.3z"/>
		<path class="st0" d="M222.8,172.7h-5.9v-1.5h13.5v1.5h-5.9v15.9h-1.6v-15.9H222.8z"/>
		<path class="st0" d="M230.4,180.5c0-0.2,0-0.5,0-0.8s0-0.6,0-0.9c0-0.3,0-0.6,0-0.9s0-0.5,0-0.6h1.5c0,0.4,0,0.8,0,1.2
			s0,0.6,0.1,0.8c0.4-0.7,0.9-1.2,1.4-1.6s1.3-0.6,2.2-0.6c0.1,0,0.3,0,0.4,0s0.3,0.1,0.4,0.1l-0.2,1.4c-0.2-0.1-0.4-0.1-0.6-0.1
			c-0.6,0-1.2,0.1-1.7,0.3s-0.8,0.5-1.2,0.8s-0.5,0.8-0.7,1.3s-0.2,1-0.2,1.6v6.2h-1.5v-8.2H230.4z"/>
		<path class="st0" d="M238.4,172.8c0-0.3,0.1-0.6,0.3-0.8s0.5-0.3,0.8-0.3s0.6,0.1,0.8,0.3s0.3,0.5,0.3,0.8s-0.1,0.6-0.3,0.8
			s-0.5,0.3-0.8,0.3s-0.6-0.1-0.8-0.3C238.5,173.4,238.4,173.1,238.4,172.8z M238.8,177.3h1.5v11.3h-1.5V177.3z"/>
		<path class="st0" d="M244.1,177.3h1.5v2l0,0c0.2-0.4,0.5-0.7,0.9-1c0.3-0.3,0.7-0.5,1.1-0.7c0.4-0.2,0.8-0.3,1.3-0.4
			c0.4-0.1,0.9-0.1,1.3-0.1c0.9,0,1.7,0.1,2.4,0.4s1.4,0.7,1.9,1.2s0.9,1.2,1.2,1.9s0.4,1.5,0.4,2.4s-0.1,1.7-0.4,2.4
			s-0.7,1.4-1.2,1.9s-1.2,0.9-1.9,1.2s-1.5,0.4-2.4,0.4c-0.4,0-0.9,0-1.3-0.1s-0.9-0.2-1.3-0.4c-0.4-0.2-0.8-0.4-1.1-0.7
			s-0.6-0.6-0.9-1l0,0v7.6h-1.5L244.1,177.3L244.1,177.3z M245.4,183c0,0.6,0.1,1.2,0.4,1.8s0.6,1.1,1,1.5s0.9,0.7,1.5,1
			c0.6,0.2,1.2,0.4,1.9,0.4s1.3-0.1,1.9-0.4c0.6-0.2,1-0.6,1.4-1s0.7-0.9,0.9-1.5s0.3-1.2,0.3-1.8s-0.1-1.2-0.3-1.8
			s-0.5-1.1-0.9-1.5s-0.9-0.7-1.4-1c-0.6-0.2-1.2-0.4-1.9-0.4s-1.3,0.1-1.9,0.4c-0.6,0.2-1.1,0.6-1.5,1s-0.8,0.9-1,1.5
			S245.4,182.3,245.4,183z"/>
		<path class="st0" d="M259.6,170.1h1.5v18.5h-1.5V170.1z"/>
		<path class="st0" d="M275.2,186.5c-0.6,0.9-1.3,1.5-2.1,1.9c-0.8,0.4-1.8,0.6-2.8,0.6c-0.9,0-1.6-0.1-2.4-0.4
			c-0.7-0.3-1.3-0.7-1.8-1.2s-0.9-1.2-1.2-1.9s-0.4-1.5-0.4-2.4c0-0.8,0.1-1.6,0.4-2.4s0.7-1.3,1.2-1.9c0.5-0.5,1.1-0.9,1.8-1.2
			c0.7-0.3,1.4-0.5,2.3-0.5s1.6,0.2,2.3,0.5c0.7,0.3,1.2,0.7,1.7,1.2c0.4,0.5,0.8,1.1,1,1.7c0.2,0.6,0.3,1.3,0.3,1.9v1H266
			c0,0.3,0.1,0.7,0.2,1.2s0.3,1,0.7,1.4c0.3,0.5,0.8,0.8,1.3,1.2c0.5,0.3,1.3,0.5,2.1,0.5c0.8,0,1.5-0.2,2.2-0.5
			c0.7-0.4,1.2-0.8,1.6-1.5L275.2,186.5z M274.1,182c0-0.5-0.1-1-0.3-1.4c-0.2-0.4-0.5-0.8-0.8-1.2c-0.4-0.3-0.8-0.6-1.2-0.8
			c-0.5-0.2-1-0.3-1.5-0.3c-0.8,0-1.5,0.2-2,0.5s-1,0.7-1.3,1.1c-0.3,0.4-0.5,0.8-0.7,1.2s-0.2,0.7-0.2,0.8L274.1,182L274.1,182z"/>
		<path class="st0" d="M279.3,171.3h1.6v15.9h8.1v1.5h-9.7V171.3z"/>
		<path class="st0" d="M291,172.8c0-0.3,0.1-0.6,0.3-0.8c0.2-0.2,0.5-0.3,0.8-0.3s0.6,0.1,0.8,0.3c0.2,0.2,0.3,0.5,0.3,0.8
			s-0.1,0.6-0.3,0.8c-0.2,0.2-0.5,0.3-0.8,0.3s-0.6-0.1-0.8-0.3C291.1,173.4,291,173.1,291,172.8z M291.4,177.3h1.5v11.3h-1.5V177.3
			z"/>
		<path class="st0" d="M297.8,178.6h-2.4v-1.3h2.4v-3.7c0-0.7,0.1-1.3,0.3-1.8c0.2-0.5,0.5-0.9,0.8-1.2s0.7-0.5,1.1-0.6
			s0.8-0.2,1.1-0.2c0.7,0,1.2,0.1,1.7,0.3l-0.3,1.3c-0.3-0.2-0.8-0.2-1.3-0.2c-1.3,0-2,1-2,3v3.2h2.6v1.3h-2.6v10h-1.5L297.8,178.6
			L297.8,178.6z"/>
		<path class="st0" d="M309.8,178.6h-3.2v7.4c0,0.5,0.1,0.9,0.4,1.2s0.7,0.4,1.2,0.4c0.3,0,0.6,0,0.8-0.1c0.3-0.1,0.6-0.2,0.8-0.3
			l0.1,1.3c-0.3,0.1-0.6,0.2-1,0.3s-0.7,0.1-1,0.1c-0.5,0-1-0.1-1.3-0.2c-0.4-0.2-0.7-0.4-0.9-0.6c-0.2-0.3-0.4-0.6-0.5-0.9
			c-0.1-0.4-0.2-0.7-0.2-1.1v-7.4h-2.5v-1.3h2.5V174h1.5v3.3h3.2v1.3H309.8z"/>
		<path class="st0" d="M333.5,185.9c-0.8,1.1-1.8,1.9-2.9,2.4s-2.3,0.7-3.6,0.7c-1.3,0-2.5-0.2-3.6-0.7c-1.1-0.4-2-1.1-2.8-1.9
			s-1.4-1.8-1.8-2.9c-0.4-1.1-0.7-2.3-0.7-3.7s0.2-2.5,0.7-3.7c0.4-1.1,1.1-2.1,1.8-2.9s1.7-1.4,2.8-1.9s2.3-0.7,3.6-0.7
			c1.2,0,2.3,0.2,3.3,0.6c1,0.4,1.9,1.1,2.7,2.1l-1.3,1.1c-0.5-0.8-1.2-1.4-2.1-1.8c-0.8-0.4-1.7-0.6-2.6-0.6c-1.1,0-2.1,0.2-3,0.6
			c-0.9,0.4-1.7,0.9-2.3,1.6c-0.6,0.7-1.1,1.5-1.5,2.4s-0.5,1.9-0.5,3s0.2,2.1,0.5,3s0.8,1.7,1.5,2.4c0.6,0.7,1.4,1.2,2.3,1.6
			c0.9,0.4,1.9,0.6,3,0.6c0.4,0,0.9-0.1,1.4-0.2c0.5-0.1,0.9-0.3,1.4-0.5c0.4-0.2,0.9-0.5,1.3-0.8s0.8-0.7,1.1-1.2L333.5,185.9z"/>
		<path class="st0" d="M335.4,183c0-0.9,0.1-1.7,0.4-2.4s0.7-1.4,1.2-1.9s1.2-0.9,1.9-1.2c0.7-0.3,1.5-0.4,2.4-0.4s1.7,0.1,2.4,0.4
			s1.4,0.7,1.9,1.2s0.9,1.2,1.2,1.9s0.4,1.5,0.4,2.4s-0.1,1.7-0.4,2.4s-0.7,1.4-1.2,1.9s-1.2,0.9-1.9,1.2c-0.7,0.3-1.5,0.4-2.4,0.4
			s-1.7-0.1-2.4-0.4c-0.7-0.3-1.4-0.7-1.9-1.2s-0.9-1.2-1.2-1.9S335.4,183.8,335.4,183z M336.9,183c0,0.6,0.1,1.2,0.3,1.8
			s0.5,1.1,0.9,1.5s0.9,0.7,1.4,1s1.2,0.4,1.9,0.4c0.7,0,1.3-0.1,1.9-0.4c0.6-0.2,1-0.6,1.4-1s0.7-0.9,0.9-1.5s0.3-1.2,0.3-1.8
			s-0.1-1.2-0.3-1.8s-0.5-1.1-0.9-1.5s-0.9-0.7-1.4-1c-0.6-0.2-1.2-0.4-1.9-0.4c-0.7,0-1.3,0.1-1.9,0.4s-1,0.6-1.4,1
			s-0.7,0.9-0.9,1.5S336.9,182.3,336.9,183z"/>
		<path class="st0" d="M350.6,180.5c0-0.2,0-0.5,0-0.8s0-0.6,0-0.9c0-0.3,0-0.6,0-0.9c0-0.3,0-0.5,0-0.6h1.5c0,0.4,0,0.8,0,1.2
			s0,0.6,0.1,0.8h0.1c0.3-0.6,0.8-1.2,1.5-1.6c0.7-0.4,1.5-0.7,2.4-0.7c0.8,0,1.4,0.2,2.1,0.6c0.6,0.4,1.1,1,1.3,1.9
			c0.4-0.8,0.9-1.5,1.6-1.9s1.5-0.6,2.2-0.6c0.9,0,1.6,0.1,2.2,0.4c0.6,0.3,1,0.6,1.3,1.1s0.5,1,0.7,1.6c0.1,0.6,0.2,1.2,0.2,1.8
			v6.7h-1.5V182c0-0.5,0-0.9-0.1-1.3c-0.1-0.4-0.2-0.8-0.4-1.2s-0.5-0.6-0.9-0.8s-0.8-0.3-1.4-0.3c-0.7,0-1.2,0.1-1.7,0.4
			c-0.4,0.3-0.8,0.6-1,1c-0.3,0.4-0.4,0.8-0.5,1.3s-0.2,0.9-0.2,1.3v6.4h-1.5V182c0-1-0.2-1.9-0.6-2.5s-1-1-1.8-1
			c-0.5,0-1,0.1-1.5,0.3s-0.9,0.5-1.2,0.9c-0.4,0.4-0.6,0.9-0.8,1.4c-0.2,0.6-0.3,1.3-0.3,2v5.7h-1.5v-8.3L350.6,180.5L350.6,180.5z
			"/>
		<path class="st0" d="M371.1,177.3h1.5v2l0,0c0.2-0.4,0.5-0.7,0.9-1c0.3-0.3,0.7-0.5,1.1-0.7s0.8-0.3,1.3-0.4
			c0.4-0.1,0.9-0.1,1.3-0.1c0.9,0,1.7,0.1,2.4,0.4s1.4,0.7,1.9,1.2s0.9,1.2,1.2,1.9s0.4,1.5,0.4,2.4s-0.1,1.7-0.4,2.4
			s-0.7,1.4-1.2,1.9s-1.2,0.9-1.9,1.2c-0.7,0.3-1.5,0.4-2.4,0.4c-0.4,0-0.9,0-1.3-0.1s-0.9-0.2-1.3-0.4s-0.8-0.4-1.1-0.7
			c-0.3-0.3-0.6-0.6-0.9-1l0,0v7.6h-1.5V177.3z M372.5,183c0,0.6,0.1,1.2,0.4,1.8s0.6,1.1,1,1.5s0.9,0.7,1.5,1s1.2,0.4,1.9,0.4
			c0.7,0,1.3-0.1,1.9-0.4c0.6-0.2,1-0.6,1.4-1s0.7-0.9,0.9-1.5s0.3-1.2,0.3-1.8s-0.1-1.2-0.3-1.8s-0.5-1.1-0.9-1.5s-0.9-0.7-1.4-1
			c-0.6-0.2-1.2-0.4-1.9-0.4c-0.7,0-1.3,0.1-1.9,0.4s-1.1,0.6-1.5,1s-0.8,0.9-1,1.5S372.5,182.3,372.5,183z"/>
		<path class="st0" d="M395.2,183.9c0,0.6,0,1.1,0,1.5s0,0.8,0,1.2s0,0.7,0.1,1.1c0,0.3,0.1,0.7,0.1,1H394c-0.1-0.6-0.1-1.2-0.1-1.8
			l0,0c-0.4,0.7-1,1.3-1.6,1.6s-1.4,0.5-2.4,0.5c-0.5,0-1-0.1-1.4-0.2c-0.5-0.1-0.9-0.3-1.3-0.6s-0.7-0.6-0.9-1
			c-0.2-0.4-0.4-0.9-0.4-1.5c0-0.9,0.2-1.6,0.7-2.1c0.4-0.5,1-0.9,1.6-1.1c0.6-0.3,1.3-0.4,2.1-0.5c0.7-0.1,1.4-0.1,1.9-0.1h1.7
			v-0.7c0-1-0.3-1.7-0.9-2.1c-0.6-0.4-1.4-0.6-2.3-0.6c-1.3,0-2.5,0.4-3.5,1.3l-0.9-1c0.5-0.5,1.2-0.9,2-1.2s1.6-0.4,2.3-0.4
			c1.4,0,2.5,0.3,3.3,1c0.8,0.6,1.2,1.7,1.2,3.1L395.2,183.9L395.2,183.9z M392.3,182.9c-0.6,0-1.2,0-1.8,0.1
			c-0.6,0.1-1.1,0.2-1.6,0.4s-0.8,0.5-1.1,0.8c-0.3,0.3-0.4,0.7-0.4,1.2c0,0.3,0.1,0.6,0.2,0.9c0.2,0.3,0.4,0.5,0.6,0.7
			s0.5,0.3,0.8,0.4c0.3,0.1,0.6,0.1,0.9,0.1c0.8,0,1.4-0.1,1.9-0.3s0.9-0.5,1.2-0.9c0.3-0.4,0.5-0.8,0.6-1.2s0.2-0.9,0.2-1.4v-0.8
			H392.3z"/>
		<path class="st0" d="M399.1,180.5c0-0.2,0-0.5,0-0.8s0-0.6,0-0.9s0-0.6,0-0.9c0-0.3,0-0.5,0-0.6h1.5c0,0.4,0,0.8,0,1.2
			s0,0.6,0.1,0.8h0.1c0.3-0.6,0.8-1.2,1.5-1.6c0.7-0.4,1.5-0.7,2.4-0.7s1.6,0.1,2.2,0.4s1,0.6,1.3,1.1s0.5,1,0.7,1.6
			c0.1,0.6,0.2,1.2,0.2,1.8v6.7h-1.5V182c0-0.5,0-0.9-0.1-1.3s-0.2-0.8-0.4-1.2s-0.5-0.6-0.9-0.8s-0.8-0.3-1.4-0.3
			c-0.5,0-1,0.1-1.5,0.3s-0.9,0.5-1.2,0.9c-0.4,0.4-0.6,0.9-0.8,1.4s-0.3,1.3-0.3,2v5.7h-1.5v-8.2L399.1,180.5L399.1,180.5z"/>
		<path class="st0" d="M415.9,192.1c-0.3,0.7-0.7,1.3-1.2,1.7s-1.1,0.6-2,0.6c-0.2,0-0.5,0-0.7-0.1s-0.5-0.1-0.7-0.2l0.1-1.4
			c0.2,0.1,0.4,0.1,0.6,0.2c0.2,0.1,0.4,0.1,0.7,0.1c0.3,0,0.5-0.1,0.7-0.2s0.4-0.3,0.5-0.4c0.1-0.2,0.3-0.4,0.4-0.6
			c0.1-0.2,0.2-0.4,0.3-0.7l1-2.6l-4.6-11.4h1.6l3.7,9.5l3.7-9.5h1.6L415.9,192.1z"/>
	</g>
</g>
</svg>
